<svg width="27" height="26" viewBox="0 0 27 26" fill="none" xmlns="http://www.w3.org/2000/svg">
<path d="M12.804 18C12.596 18 12.432 17.868 12.312 17.604L9.348 10.584C9.288 10.444 9.272 10.32 9.3 10.212C9.328 10.1 9.42 10.008 9.576 9.936C9.904 9.772 10.136 9.856 10.272 10.188L13.074 16.824H12.726L15.456 10.188C15.588 9.86 15.82 9.776 16.152 9.936C16.292 10.008 16.378 10.1 16.41 10.212C16.446 10.32 16.436 10.444 16.38 10.584L13.392 17.604C13.268 17.868 13.088 18 12.852 18H12.804Z" fill="black"/>
</svg>
