<svg width="69" height="69" viewBox="0 0 69 69" fill="none" xmlns="http://www.w3.org/2000/svg">
<path d="M11.5 54.625V28.75C11.5 27.8396 11.7041 26.9771 12.1124 26.1625C12.5206 25.3479 13.0832 24.6771 13.8 24.15L31.05 11.2125C32.0563 10.4458 33.2063 10.0625 34.5 10.0625C35.7938 10.0625 36.9438 10.4458 37.95 11.2125L55.2 24.15C55.9188 24.6771 56.4823 25.3479 56.8905 26.1625C57.2988 26.9771 57.5019 27.8396 57.5 28.75V54.625C57.5 56.2063 56.9365 57.5604 55.8095 58.6874C54.6825 59.8144 53.3293 60.3769 51.75 60.375H43.125C42.3104 60.375 41.6281 60.099 41.078 59.547C40.5279 58.995 40.2519 58.3127 40.25 57.5V43.125C40.25 42.3104 39.974 41.6281 39.422 41.078C38.87 40.5279 38.1877 40.2519 37.375 40.25H31.625C30.8104 40.25 30.1281 40.526 29.578 41.078C29.0279 41.63 28.7519 42.3123 28.75 43.125V57.5C28.75 58.3146 28.474 58.9979 27.922 59.5499C27.37 60.1019 26.6877 60.3769 25.875 60.375H17.25C15.6688 60.375 14.3156 59.8125 13.1905 58.6874C12.0654 57.5623 11.5019 56.2082 11.5 54.625Z" fill="black"/>
</svg>
