<svg width="243" height="220" viewBox="0 0 243 220" fill="none" xmlns="http://www.w3.org/2000/svg">
<rect width="243" height="220" rx="22" fill="#F7A7A8"/>
<path d="M78.9561 68.0137V74.3857H68.1895V104H60.6211V74.3857H49.8057V68.0137H78.9561ZM93.458 83.8096C90.6585 83.8096 88.7786 84.721 87.8184 86.5439C87.2812 87.5693 87.0127 89.1481 87.0127 91.2803V104H80.0059V77.3887H86.6465V82.0273C87.7207 80.2533 88.6566 79.0407 89.4541 78.3896C90.7562 77.2992 92.4489 76.7539 94.5322 76.7539C94.6624 76.7539 94.7682 76.762 94.8496 76.7783C94.9473 76.7783 95.1507 76.7865 95.46 76.8027V83.9316C95.0205 83.8828 94.6299 83.8503 94.2881 83.834C93.9463 83.8177 93.6696 83.8096 93.458 83.8096ZM100.562 80.2695C102.402 77.9258 105.559 76.7539 110.035 76.7539C112.949 76.7539 115.536 77.3317 117.799 78.4873C120.061 79.6429 121.192 81.8239 121.192 85.0303V97.2373C121.192 98.0837 121.209 99.109 121.241 100.313C121.29 101.225 121.428 101.843 121.656 102.169C121.884 102.494 122.226 102.763 122.682 102.975V104H115.113C114.902 103.463 114.755 102.958 114.674 102.486C114.592 102.014 114.527 101.477 114.479 100.875C113.518 101.917 112.411 102.804 111.158 103.536C109.661 104.399 107.968 104.83 106.08 104.83C103.671 104.83 101.677 104.146 100.099 102.779C98.5361 101.396 97.7549 99.4427 97.7549 96.9199C97.7549 93.6484 99.0163 91.2803 101.539 89.8154C102.923 89.0179 104.957 88.4482 107.643 88.1064L110.011 87.8135C111.297 87.6507 112.216 87.4473 112.77 87.2031C113.762 86.7799 114.259 86.1208 114.259 85.2256C114.259 84.1351 113.876 83.3864 113.111 82.9795C112.363 82.5563 111.256 82.3447 109.791 82.3447C108.147 82.3447 106.983 82.7516 106.3 83.5654C105.812 84.1676 105.486 84.9814 105.323 86.0068H98.6094C98.7559 83.6794 99.4069 81.7669 100.562 80.2695ZM105.738 98.9707C106.389 99.5078 107.187 99.7764 108.131 99.7764C109.628 99.7764 111.004 99.3369 112.257 98.458C113.526 97.5791 114.186 95.9759 114.234 93.6484V91.0605C113.795 91.3372 113.347 91.5651 112.892 91.7441C112.452 91.9069 111.842 92.0615 111.061 92.208L109.498 92.501C108.033 92.7614 106.983 93.0788 106.349 93.4531C105.274 94.0879 104.737 95.0726 104.737 96.4072C104.737 97.5954 105.071 98.4499 105.738 98.9707ZM124.781 77.3887H132.594L138.136 97.0176L143.8 77.3887H151.271L141.676 104H134.327L124.781 77.3887ZM178.004 96.1875C177.825 97.7663 177.003 99.3695 175.538 100.997C173.259 103.585 170.069 104.879 165.968 104.879C162.582 104.879 159.596 103.788 157.008 101.607C154.42 99.4264 153.126 95.8783 153.126 90.9629C153.126 86.3568 154.29 82.8249 156.617 80.3672C158.961 77.9095 161.996 76.6807 165.724 76.6807C167.937 76.6807 169.931 77.0957 171.705 77.9258C173.479 78.7559 174.944 80.0661 176.1 81.8564C177.141 83.4352 177.817 85.2663 178.126 87.3496C178.305 88.5703 178.378 90.3281 178.346 92.623H160.133C160.23 95.2923 161.069 97.1641 162.647 98.2383C163.608 98.9056 164.763 99.2393 166.114 99.2393C167.547 99.2393 168.71 98.8324 169.605 98.0186C170.094 97.5791 170.525 96.9688 170.899 96.1875H178.004ZM171.119 88.0332C171.005 86.194 170.444 84.8024 169.435 83.8584C168.442 82.8981 167.205 82.418 165.724 82.418C164.112 82.418 162.859 82.9225 161.964 83.9316C161.085 84.9408 160.532 86.3079 160.304 88.0332H171.119ZM183.204 68.0137H190.162V104H183.204V68.0137ZM67.9697 125.014L61.6953 154.53H79.5176L78.1504 161H52.8086L60.4502 125.014H67.9697ZM88.5508 134.389H95.6064L89.9668 161H82.9111L88.5508 134.389ZM90.6016 124.794H97.6572L96.29 131.215H89.2344L90.6016 124.794ZM117.14 144.813C117.449 143.414 117.49 142.34 117.262 141.591C116.871 140.224 115.715 139.54 113.795 139.54C111.435 139.54 109.604 140.541 108.302 142.543C107.618 143.601 107.105 144.952 106.764 146.596L103.712 161H96.7783L102.418 134.438H109.132L108.302 138.319C109.49 136.952 110.548 135.967 111.476 135.365C113.136 134.291 115.064 133.754 117.262 133.754C120.012 133.754 122.104 134.478 123.536 135.927C124.985 137.359 125.359 139.743 124.659 143.08L120.851 161H113.722L117.14 144.813ZM135.816 152.626L134.059 161H127.223L134.84 125.136H141.676L137.55 144.521L148.341 134.511H156.959L145.484 144.691L151.71 161H143.312L139.356 149.623L135.816 152.626Z" fill="white"/>
</svg>
