<svg width="192" height="192" viewBox="0 0 192 192" fill="none" xmlns="http://www.w3.org/2000/svg">
<path d="M112 176V151.4L156.2 107.4C157.4 106.2 158.733 105.333 160.2 104.8C161.667 104.267 163.133 104 164.6 104C166.2 104 167.733 104.301 169.2 104.904C170.667 105.507 172 106.405 173.2 107.6L180.6 115C181.667 116.2 182.501 117.533 183.104 119C183.707 120.467 184.005 121.933 184 123.4C183.995 124.867 183.728 126.368 183.2 127.904C182.672 129.44 181.805 130.805 180.6 132L136.6 176H112ZM164.6 131.2L172 123.4L164.6 116L157 123.6L164.6 131.2ZM32 160C27.6 160 23.8347 158.435 20.704 155.304C17.5733 152.173 16.0053 148.405 16 144V48C16 43.6 17.568 39.8347 20.704 36.704C23.84 33.5733 27.6053 32.0053 32 32H80L96 48H160C164.4 48 168.168 49.568 171.304 52.704C174.44 55.84 176.005 59.6053 176 64V90.4C174.133 89.6 172.2 89 170.2 88.6C168.2 88.2 166.2 88 164.2 88C160.467 88 156.968 88.6667 153.704 90C150.44 91.3333 147.472 93.3333 144.8 96L96 144.8V160H32Z" fill="black"/>
</svg>
