<svg width="168" height="144" viewBox="0 0 168 144" fill="none" xmlns="http://www.w3.org/2000/svg">
<path d="M96 144V119.4L140.2 75.4C141.4 74.2 142.733 73.3333 144.2 72.8C145.667 72.2667 147.133 72 148.6 72C150.2 72 151.733 72.3013 153.2 72.904C154.667 73.5067 156 74.4053 157.2 75.6L164.6 83C165.667 84.2 166.501 85.5333 167.104 87C167.707 88.4667 168.005 89.9333 168 91.4C167.995 92.8667 167.728 94.368 167.2 95.904C166.672 97.44 165.805 98.8053 164.6 100L120.6 144H96ZM148.6 99.2L156 91.4L148.6 84L141 91.6L148.6 99.2ZM16 128C11.6 128 7.83467 126.435 4.704 123.304C1.57333 120.173 0.00533333 116.405 0 112V16C0 11.6 1.568 7.83467 4.704 4.704C7.84 1.57333 11.6053 0.00533333 16 0H64L80 16H144C148.4 16 152.168 17.568 155.304 20.704C158.44 23.84 160.005 27.6053 160 32V58.4C158.133 57.6 156.2 57 154.2 56.6C152.2 56.2 150.2 56 148.2 56C144.467 56 140.968 56.6667 137.704 58C134.44 59.3333 131.472 61.3333 128.8 64L80 112.8V128H16Z" fill="white"/>
</svg>
