<svg width="61" height="61" viewBox="0 0 61 61" fill="none" xmlns="http://www.w3.org/2000/svg">
<path d="M30.4999 29.2293C28.8147 29.2293 27.1985 28.5599 26.0068 27.3682C24.8152 26.1766 24.1458 24.5604 24.1458 22.8752C24.1458 21.1899 24.8152 19.5737 26.0068 18.3821C27.1985 17.1905 28.8147 16.521 30.4999 16.521C32.1851 16.521 33.8014 17.1905 34.993 18.3821C36.1846 19.5737 36.8541 21.1899 36.8541 22.8752C36.8541 23.7096 36.6897 24.5359 36.3704 25.3068C36.0511 26.0777 35.583 26.7782 34.993 27.3682C34.403 27.9583 33.7025 28.4263 32.9316 28.7456C32.1606 29.065 31.3344 29.2293 30.4999 29.2293ZM30.4999 5.0835C25.7813 5.0835 21.2559 6.95797 17.9193 10.2946C14.5827 13.6311 12.7083 18.1565 12.7083 22.8752C12.7083 36.2189 30.4999 55.9168 30.4999 55.9168C30.4999 55.9168 48.2916 36.2189 48.2916 22.8752C48.2916 18.1565 46.4171 13.6311 43.0805 10.2946C39.7439 6.95797 35.2186 5.0835 30.4999 5.0835Z" fill="#F5F5F5"/>
</svg>
