<svg width="61" height="61" viewBox="0 0 61 61" fill="none" xmlns="http://www.w3.org/2000/svg">
<path d="M53.375 48.2918V50.8335H7.625V48.2918L12.7083 43.2085V27.9585C12.7083 20.0793 17.8679 13.1406 25.4167 10.9039V10.1668C25.4167 8.81865 25.9522 7.52568 26.9055 6.57237C27.8589 5.61906 29.1518 5.0835 30.5 5.0835C31.8482 5.0835 33.1411 5.61906 34.0945 6.57237C35.0478 7.52568 35.5833 8.81865 35.5833 10.1668V10.9039C43.1321 13.1406 48.2917 20.0793 48.2917 27.9585V43.2085L53.375 48.2918ZM35.5833 53.3752C35.5833 54.7233 35.0478 56.0163 34.0945 56.9696C33.1411 57.9229 31.8482 58.4585 30.5 58.4585C29.1518 58.4585 27.8589 57.9229 26.9055 56.9696C25.9522 56.0163 25.4167 54.7233 25.4167 53.3752" fill="#F5F5F5"/>
</svg>
